<svg width="40" height="40" viewBox="0 0 40 40" fill="none" xmlns="http://www.w3.org/2000/svg">
<g clip-path="url(#clip0_2800_1435)">
<path d="M0 20C0 25.3043 2.10714 30.3914 5.85786 34.1421C9.60859 37.8929 14.6957 40 20 40C25.3043 40 30.3914 37.8929 34.1421 34.1421C37.8929 30.3914 40 25.3043 40 20C40 14.6957 37.8929 9.60859 34.1421 5.85786C30.3914 2.10714 25.3043 0 20 0C14.6957 0 9.60859 2.10714 5.85786 5.85786C2.10714 9.60859 0 14.6957 0 20Z" fill="#627EEA"/>
<path d="M20.6221 5V16.0875L29.9933 20.275L20.6221 5Z" fill="white" fill-opacity="0.602"/>
<path d="M20.6225 5L11.25 20.275L20.6225 16.0875V5Z" fill="white"/>
<path d="M20.6221 27.46V34.9938L29.9996 22.02L20.6221 27.46Z" fill="white" fill-opacity="0.602"/>
<path d="M20.6225 34.9938V27.4588L11.25 22.02L20.6225 34.9938Z" fill="white"/>
<path d="M20.6221 25.7161L29.9933 20.2748L20.6221 16.0898V25.7161Z" fill="white" fill-opacity="0.2"/>
<path d="M11.25 20.2748L20.6225 25.7161V16.0898L11.25 20.2748Z" fill="white" fill-opacity="0.602"/>
</g>
<defs>
<clipPath id="clip0_2800_1435">
<rect width="40" height="40" fill="white"/>
</clipPath>
</defs>
</svg>
