<svg width="46" height="46" viewBox="0 0 46 46" fill="none" xmlns="http://www.w3.org/2000/svg">
<rect width="46" height="46" rx="22.6667" fill="black"/>
<path fill-rule="evenodd" clip-rule="evenodd" d="M24.9768 9.1592L26.0463 2.27681C24.9893 2.1125 23.9077 2.0293 22.8308 2.0293H22.8144V16.0711H22.8308C23.4227 16.0711 24.0083 16.1469 24.5717 16.2965L26.3875 9.45411C25.9231 9.33087 25.4523 9.23345 24.9768 9.1592ZM19.4446 16.978L15.9505 10.9576C15.5387 11.1972 15.1363 11.4563 14.7519 11.7365L10.5784 6.01844C11.4563 5.37754 12.3905 4.80248 13.3563 4.30745L16.5324 10.5068C17.177 10.1772 17.8463 9.89858 18.5336 9.67423L16.3728 3.05199C17.405 2.71548 18.473 2.45797 19.5478 2.28734L20.659 9.27927C20.1887 9.35353 19.7211 9.45568 19.2608 9.57944L21.0692 16.3017C20.501 16.4545 19.9549 16.682 19.4446 16.978ZM10.5916 16.6172L4.28323 13.4053C3.78979 14.3749 3.36955 15.3912 3.03514 16.4265L9.77113 18.6046C9.99126 17.9237 10.2667 17.2549 10.5916 16.6172ZM34.7003 15.9441L28.682 19.4415C28.9785 19.9512 29.206 20.4979 29.3593 21.065L36.081 19.2534C36.2048 19.7137 36.307 20.1809 36.3818 20.6506L43.3726 19.5373C43.2014 18.463 42.9434 17.3945 42.6059 16.3618L35.9847 18.5267C35.7598 17.8395 35.4812 17.1707 35.1511 16.5261L41.3483 13.3458C40.8533 12.3811 40.2772 11.4468 39.6363 10.5695L33.9198 14.7455C34.2004 15.1301 34.4608 15.5318 34.7003 15.9441ZM32.246 4.27785C31.2755 3.78498 30.2592 3.3653 29.2249 3.03145L27.0506 9.7685C27.731 9.9881 28.3997 10.264 29.0386 10.5884L32.246 4.27785ZM29.7326 10.8333L26.1985 16.9668C26.7103 17.2618 27.1822 17.623 27.6019 18.0411L37.514 8.09543C36.7451 7.3292 35.9099 6.61774 35.0315 5.98053L30.9433 11.6185C30.5536 11.3362 30.1497 11.074 29.7326 10.8333ZM16.9695 19.4599L10.8375 15.9221C11.0782 15.505 11.3415 15.1016 11.6238 14.7124L5.9879 10.6216C6.6251 9.74375 7.33709 8.90905 8.10386 8.14019L18.0454 18.0559C17.6268 18.4762 17.2644 18.9485 16.9695 19.4599ZM9.45568 19.2661L16.297 21.0866C16.1469 21.6506 16.0711 22.2378 16.0711 22.8308H2.0293C2.0293 21.7507 2.11303 20.6648 2.27839 19.6041L9.15973 20.6769C9.23398 20.2014 9.33193 19.7305 9.45568 19.2661ZM35.0699 29.0444L41.3783 32.2562C41.8717 31.2867 42.292 30.2703 42.6264 29.235L35.8905 27.0569C35.6703 27.7378 35.3949 28.4066 35.0699 29.0444ZM26.2169 28.6836L29.7111 34.7039C30.1228 34.4643 30.5247 34.2047 30.9091 33.9245L35.0825 39.6425C34.2047 40.2834 33.2705 40.8586 32.3047 41.3535L29.1286 35.1542C28.484 35.4839 27.8152 35.7624 27.1274 35.9868L29.2882 42.609C28.256 42.9455 27.1881 43.203 26.1131 43.3737L25.0025 36.3823C25.4729 36.308 25.94 36.2058 26.4007 36.0821L24.5923 29.3598C25.1605 29.207 25.7067 28.9796 26.2169 28.6836ZM10.9613 29.7174L16.98 26.2201C16.6835 25.7103 16.4561 25.1637 16.3027 24.5965L9.58102 26.4081C9.45726 25.9479 9.3551 25.4807 9.28033 25.011L2.28892 26.1243C2.46007 27.1986 2.71811 28.267 3.05568 29.2997L9.67686 27.1348C9.90173 27.8221 10.1803 28.4909 10.5105 29.1355L4.31325 32.3157C4.80827 33.2805 5.38439 34.2147 6.02529 35.0921L11.7417 30.916C11.461 30.5316 11.2009 30.1297 10.9613 29.7174ZM13.4155 41.3837C14.386 41.8766 15.4024 42.2963 16.4366 42.6301L18.611 35.8931C17.9306 35.6735 17.2618 35.3975 16.623 35.0731L13.4155 41.3837ZM15.9289 34.8282L19.463 28.6947C18.9512 28.3997 18.4793 28.0385 18.0596 27.6204L8.14756 37.5661C8.91643 38.3323 9.75165 39.0439 10.6301 39.681L14.7182 34.0431C15.1079 34.3252 15.5119 34.5876 15.9289 34.8282ZM28.692 26.2016L34.824 29.7395C34.5833 30.1566 34.3195 30.5605 34.0373 30.9497L39.6731 35.0404C39.036 35.9183 38.3239 36.753 37.5572 37.5219L27.6161 27.6056C28.0348 27.1854 28.3971 26.7131 28.692 26.2016ZM21.0898 29.365L19.274 36.2075C19.7384 36.3306 20.2093 36.4281 20.6848 36.5023L19.6158 43.3847C20.6727 43.549 21.7544 43.6322 22.8313 43.6322H22.8476V29.5904H22.8313C22.2394 29.5904 21.6533 29.5146 21.0898 29.365ZM29.364 24.575C29.5141 24.0105 29.5904 23.4241 29.5904 22.8313H43.6322C43.6322 23.9114 43.5485 24.9972 43.3831 26.0579L36.5013 24.9847C36.427 25.4602 36.3291 25.931 36.2053 26.3954L29.364 24.575Z" fill="white"/>
</svg>
